<?xml version="1.0" encoding="UTF-8"?>
<svg 
  version="1.1"
  viewBox="0 0 1024 1024"
  xmlns="http://www.w3.org/2000/svg"
>
  <path
    fill="#2c3e66"
    d="M 63.999606,0.00629996 C 28.543824,0.00629996 0,28.550124 0,64.005906 V 960.00039 C 0,995.45618 28.543824,1024 63.999606,1024 H 335.41004 V 630.76612 H 212.47139 V 522.34689 h 344.99788 7.35146 V 630.76612 H 441.88008 V 1024 h 205.91473 c -3.32338,-0.8977 -6.82115,-1.7087 -9.93543,-2.7109 l -0.031,-0.012 -0.033,-0.01 c -11.17814,-3.8425 -21.09937,-7.7308 -29.69702,-12.0292 l -0.062,-0.031 -0.059,-0.031 c -7.99945,-4.2031 -14.86231,-8.194 -20.63077,-12.03903 l -5.33587,-3.55858 30.82591,-111.34302 7.57425,4.84757 c 11.56153,7.39606 25.99754,14.29011 43.24384,20.55658 17.14179,5.64036 38.44246,8.57804 63.8082,8.57804 12.50113,0 22.54957,-1.13619 29.92952,-3.16798 7.94015,-2.53718 13.96681,-5.64446 18.07609,-8.92574 4.14107,-3.75818 6.67146,-7.65946 8.07415,-11.91393 1.59799,-4.84647 2.44918,-10.39444 2.44918,-16.8202 0,-12.86272 -4.54297,-22.46376 -15.6347,-31.3592 l -0.062,-0.051 -0.062,-0.053 c -11.31603,-9.48794 -32.4826,-20.68577 -62.73981,-32.451 l -0.061,-0.023 -0.061,-0.025 c -13.51452,-5.56417 -27.02044,-11.82033 -40.51925,-18.76749 l -0.084,-0.041 -0.08,-0.045 c -13.88292,-7.62105 -26.41194,-16.95479 -37.51927,-27.99202 l -0.059,-0.061 -0.057,-0.059 C 617.7866,752.77977 608.57796,738.85335 601.5179,722.86645 l -0.02,-0.047 -0.02,-0.047 c -7.28546,-16.99769 -10.77533,-37.13257 -10.77533,-60.10313 0,-23.01326 3.71887,-44.00443 11.27923,-62.64031 7.50395,-18.95188 18.23578,-35.15609 32.0037,-48.2965 13.76701,-13.13972 30.35961,-23.01326 49.55049,-29.69122 19.26269,-7.16086 40.78525,-10.67574 64.51721,-10.67574 l -0.01,-0.01 c 27.97603,0 52.37608,3.48088 73.24955,10.64254 20.35177,6.98266 37.27197,14.69951 50.85718,23.34365 l 5.56247,3.53708 -31.51551,100.48568 -7.41595,-4.47457 c -10.92103,-6.58946 -23.25176,-12.35402 -37.00367,-17.25579 l -0.1191,-0.041 -0.1172,-0.047 c -12.70922,-5.08307 -28.59553,-7.77145 -47.61501,-7.77145 -21.26037,0 -35.97888,3.87517 -43.68323,9.62694 l -0.033,0.023 -0.033,0.025 c -7.41885,5.40906 -10.66203,12.48392 -10.66203,24.97834 0,7.33746 1.41309,12.73723 3.98827,17.0761 2.89018,4.87017 7.06826,9.61224 12.66792,14.13271 6.24997,4.26878 13.27532,8.37545 21.09167,12.29093 8.52665,3.61527 17.81399,7.45305 27.89433,11.52343 l 0.074,0.029 0.074,0.031 c 21.33977,9.21985 39.97496,18.46449 55.95276,27.77913 16.2498,9.01235 29.87991,19.80018 40.75365,32.4686 11.32653,12.73933 19.81537,27.84013 25.27714,44.99383 5.49597,17.26079 8.10735,37.69597 8.10735,61.31212 0,46.37781 -14.43341,94.07312 -42.77894,120.33126 l -0.027,0.024 -0.025,0.023 c -13.30771,12.24312 -29.72471,21.28042 -48.91569,27.55062 h 156.34493 c 35.4558,0 63.99961,-28.54381 63.99961,-63.9996 V 63.999606 C 1023.9937,28.543824 995.44989,0 959.99409,0 Z"
  />
</svg>
